<svg xmlns="http://www.w3.org/2000/svg" width="80" height="107" viewBox="0 0 80 107">
  <g id="Group_27" data-name="Group 27" transform="translate(-459 -124)">
    <g id="Rectangle_8" data-name="Rectangle 8" transform="translate(459 124)" fill="#fff" stroke="#000" stroke-width="3">
      <rect width="80" height="80" rx="24" stroke="none"/>
      <rect x="1.5" y="1.5" width="77" height="77" rx="22.5" fill="none"/>
    </g>
    <g id="Group_26" data-name="Group 26" transform="translate(-90 -2)">
      <g id="Group_15" data-name="Group 15" transform="translate(569.253 141.166)">
        <g id="Group_10" data-name="Group 10" transform="translate(0 14.623)">
          <g id="Rectangle_4" data-name="Rectangle 4" transform="translate(-0.253 14.211)" fill="#fff" stroke="#000" stroke-width="4">
            <rect width="15" height="22" rx="7.5" stroke="none"/>
            <rect x="2" y="2" width="11" height="18" rx="5.5" fill="none"/>
          </g>
          <g id="Ellipse_4" data-name="Ellipse 4" transform="translate(1.747 0.211)" fill="#fff" stroke="#000" stroke-width="4">
            <ellipse cx="6" cy="6.5" rx="6" ry="6.5" stroke="none"/>
            <ellipse cx="6" cy="6.5" rx="4" ry="4.5" fill="none"/>
          </g>
        </g>
        <g id="Group_11" data-name="Group 11" transform="translate(11.539 0)">
          <g id="Rectangle_5" data-name="Rectangle 5" transform="translate(11.209 17.834)" stroke="#000" stroke-width="4">
            <rect width="18" height="33" rx="9" stroke="none"/>
            <rect x="2" y="2" width="14" height="29" rx="7" fill="none"/>
          </g>
          <g id="Ellipse_5" data-name="Ellipse 5" transform="translate(12.209 -0.166)" stroke="#000" stroke-width="4">
            <ellipse cx="8" cy="8.5" rx="8" ry="8.5" stroke="none"/>
            <ellipse cx="8" cy="8.5" rx="6" ry="6.5" fill="none"/>
          </g>
          <rect id="Rectangle_6" data-name="Rectangle 6" width="19.026" height="5.074" rx="2.537" transform="matrix(0.788, -0.616, 0.616, 0.788, 0, 30.817)"/>
        </g>
      </g>
    </g>
    <text id="Ages_8_" data-name="Ages 8+" transform="translate(468 225)" font-size="20" font-family="Times-Roman, Times"><tspan x="0" y="0">Ages</tspan><tspan y="0" xml:space="preserve" font-family="Raanana"> 8+</tspan></text>
  </g>
</svg>
