<svg xmlns="http://www.w3.org/2000/svg" width="80" height="107" viewBox="0 0 80 107">
  <g id="Group_28" data-name="Group 28" transform="translate(-107 -124)">
    <g id="Group_27" data-name="Group 27">
      <g id="Rectangle_1" data-name="Rectangle 1" transform="translate(107 124)" fill="#fff" stroke="#000" stroke-width="3">
        <rect width="80" height="80" rx="24" stroke="none"/>
        <rect x="1.5" y="1.5" width="77" height="77" rx="22.5" fill="none"/>
      </g>
      <g id="Group_13" data-name="Group 13" transform="translate(121 147.494)">
        <g id="Group_9" data-name="Group 9" transform="translate(0 0)">
          <g id="Ellipse_2" data-name="Ellipse 2" transform="translate(3.921 -0.494)" stroke="#000" stroke-width="4">
            <ellipse cx="7" cy="6.5" rx="7" ry="6.5" stroke="none"/>
            <ellipse cx="7" cy="6.5" rx="5" ry="4.5" fill="none"/>
          </g>
          <path id="Subtraction_1" data-name="Subtraction 1" d="M17.506,20.048H3.843A3.847,3.847,0,0,1,0,16.206V3.824A3.843,3.843,0,0,1,3.458,0l7.43,3.4L18.216.046a3.842,3.842,0,0,1,3.132,3.777V16.206A3.847,3.847,0,0,1,17.506,20.048Z" transform="translate(0 12.806)"/>
        </g>
        <g id="Group_12" data-name="Group 12" transform="translate(29.888 0)">
          <g id="Ellipse_2-2" data-name="Ellipse 2" transform="translate(3.033 -0.494)" stroke="#000" stroke-width="4">
            <ellipse cx="7.5" cy="6.5" rx="7.5" ry="6.5" stroke="none"/>
            <ellipse cx="7.5" cy="6.5" rx="5.5" ry="4.5" fill="none"/>
          </g>
          <path id="Subtraction_1-2" data-name="Subtraction 1" d="M17.506,20.048H3.843A3.847,3.847,0,0,1,0,16.206V3.824A3.843,3.843,0,0,1,3.458,0l7.43,3.4L18.216.046a3.842,3.842,0,0,1,3.132,3.777V16.206A3.847,3.847,0,0,1,17.506,20.048Z" transform="translate(0 12.806)"/>
        </g>
      </g>
    </g>
    <text id="_2_Players" data-name="2 Players" transform="translate(110 210)" font-size="20" font-family="Raanana"><tspan x="0" y="15">2 </tspan><tspan y="15" font-family="Times-Roman, Times">Players</tspan></text>
  </g>
</svg>
