<svg xmlns="http://www.w3.org/2000/svg" xmlns:xlink="http://www.w3.org/1999/xlink" width="234" height="301" viewBox="0 0 234 301">
  <defs>
    <clipPath id="clip-iPhone_X_XS_11_Pro_1">
      <rect width="234" height="301"/>
    </clipPath>
  </defs>
  <g id="iPhone_X_XS_11_Pro_1" data-name="iPhone X/XS/11 Pro – 1" clip-path="url(#clip-iPhone_X_XS_11_Pro_1)">
    <rect width="234" height="301" fill="#fff"/>
    <g id="Group_1" data-name="Group 1" transform="translate(-90 -419)">
      <g id="Group_16" data-name="Group 16" transform="translate(-1380 10)">
        <g id="Group_5" data-name="Group 5" transform="translate(416 23)">
          <g id="Group_3" data-name="Group 3" transform="translate(0.5 30.5)">
            <g id="Group_1-2" data-name="Group 1">
              <line id="Line_1" data-name="Line 1" x2="1" y2="181" transform="translate(1056.5 358.5)" fill="none" stroke="#000" stroke-width="6"/>
            </g>
            <g id="Group_2" data-name="Group 2" transform="translate(1170.5 358.5)">
              <path id="Path_7" data-name="Path 7" d="M1,0-.123,180.121l-.013,2.136" transform="translate(113)" stroke="#000" stroke-linecap="round" stroke-width="6"/>
              <path id="Path_1" data-name="Path 1" d="M0,110.553,13.025,94.281l12.449-8.905,32.3-17.727L86.815,49A62.3,62.3,0,0,0,97.36,39.008,100.171,100.171,0,0,0,106.59,25a44.956,44.956,0,0,0,4.049-10.564A108.155,108.155,0,0,0,112.864-.049" transform="translate(0 182.892)" fill="#fff" stroke="#000" stroke-linecap="round" stroke-width="6"/>
              <path id="Path_6" data-name="Path 6" d="M113.007,112.353,99.962,95.816l-12.469-9.05L55.137,68.75,26.05,49.8A62.751,62.751,0,0,1,15.488,39.643,101.988,101.988,0,0,1,6.242,25.408,46.073,46.073,0,0,1,2.186,14.672,107.812,107.812,0,0,1,0,0" transform="translate(-113.007 181.092)" fill="#fff" stroke="#000" stroke-linecap="round" stroke-width="6"/>
            </g>
            <path id="Path_2" data-name="Path 2" d="M0,0A81.886,81.886,0,0,0,24.716,13.822C39.3,18.811,57.5,19.514,57.5,19.514s20.073-.7,33.992-5.693A64.547,64.547,0,0,0,114,0" transform="translate(1056.5 358.5)" fill="#fff" stroke="#000" stroke-linecap="round" stroke-width="6"/>
            <path id="Path_3" data-name="Path 3" d="M0,0A81.886,81.886,0,0,0,24.716,13.822C39.3,18.811,57.5,19.514,57.5,19.514s20.073-.7,33.992-5.693A64.547,64.547,0,0,0,114,0" transform="translate(1170.5 358.5)" fill="#fff" stroke="#000" stroke-width="6"/>
          </g>
        </g>
        <g id="Group_4" data-name="Group 4" transform="translate(416 37)">
          <text id="GOT" transform="translate(1105 504)" font-size="64" font-family="Times-Roman, Times"><tspan x="0" y="0">GOT</tspan></text>
          <text id="THE_LADDER_GAME" data-name="THE LADDER GAME" transform="translate(1077 541)" font-size="20" font-family="STIXGeneral-Regular, STIXGeneral"><tspan x="0" y="0">THE LADDER GAME</tspan></text>
        </g>
      </g>
    </g>
  </g>
</svg>
