<svg xmlns="http://www.w3.org/2000/svg" width="138.175" height="176.963" viewBox="0 0 138.175 176.963">
  <g id="Group_24" data-name="Group 24" transform="translate(-271.767 -51.758)">
    <g id="Group_2" data-name="Group 2" transform="translate(-145.982 1574.133) rotate(-90)">
      <path id="Path_16" data-name="Path 16" d="M0,0V5.58L38.312,38.408" transform="translate(1414.821 485.123)" fill="#021443"/>
      <path id="Path_15" data-name="Path 15" d="M37.553,0V5.513L0,37.946" transform="translate(1415.201 485.586)" fill="#021443"/>
      <path id="Path_20" data-name="Path 20" d="M0,0V5.58L38.312,38.408" transform="translate(1453.133 490.39) rotate(180)" fill="#021443"/>
      <path id="Path_21" data-name="Path 21" d="M37.553,0V5.513L0,37.946" transform="translate(1452.754 489.927) rotate(180)" fill="#021443"/>
    </g>
    <g id="Group_23" data-name="Group 23" transform="translate(183 -366)">
      <g id="Group_16" data-name="Group 16" transform="translate(93 422)">
        <g id="Group_5" data-name="Group 5" transform="translate(0)">
          <g id="Group_3" data-name="Group 3">
            <g id="Group_1" data-name="Group 1" transform="translate(0)">
              <line id="Line_1" data-name="Line 1" x2="1" y2="104" fill="none" stroke="#021443" stroke-width="6"/>
            </g>
            <g id="Group_2-2" data-name="Group 2" transform="translate(0.57)">
              <path id="Path_7" data-name="Path 7" d="M.516,0-.128,103.43l-.008,1.226" transform="translate(129.837)" fill="#fff" stroke="#021443" stroke-linecap="round" stroke-width="6"/>
              <path id="Path_1" data-name="Path 1" d="M0,63.462l7.479-9.344L14.628,49,33.176,38.825,49.852,28.118a35.774,35.774,0,0,0,6.055-5.739,57.521,57.521,0,0,0,5.3-8.043,25.815,25.815,0,0,0,2.325-6.066A62.1,62.1,0,0,0,64.81-.049" transform="translate(64.892 105.042)" fill="#fff" stroke="#021443" stroke-linecap="round" stroke-width="6"/>
              <path id="Path_6" data-name="Path 6" d="M64.892,64.516,57.4,55.02l-7.16-5.2L31.661,39.478,14.959,28.6a36.033,36.033,0,0,1-6.065-5.833A58.564,58.564,0,0,1,3.585,14.59,26.456,26.456,0,0,1,1.255,8.425,61.909,61.909,0,0,1,0,0" transform="translate(0 103.988)" fill="#fff" stroke="#021443" stroke-linecap="round" stroke-width="6"/>
            </g>
            <path id="Path_2" data-name="Path 2" d="M0,0A47.021,47.021,0,0,0,14.193,7.937c8.373,2.865,18.825,3.269,18.825,3.269s11.526-.4,19.519-3.269A37.064,37.064,0,0,0,65.462,0" transform="translate(0)" fill="#fff" stroke="#021443" stroke-linecap="round" stroke-width="6"/>
            <path id="Path_3" data-name="Path 3" d="M0,0A47.021,47.021,0,0,0,14.193,7.937c8.373,2.865,18.825,3.269,18.825,3.269s11.526-.4,19.519-3.269A37.064,37.064,0,0,0,65.462,0" transform="translate(65.462)" fill="#fff" stroke="#021443" stroke-width="6"/>
          </g>
        </g>
      </g>
    </g>
  </g>
</svg>
